<?xml version="1.0" standalone="no"?>
<!DOCTYPE svg PUBLIC "-//W3C//DTD SVG 20010904//EN"
 "http://www.w3.org/TR/2001/REC-SVG-20010904/DTD/svg10.dtd">
<svg version="1.0" xmlns="http://www.w3.org/2000/svg"
 width="512.000000pt" height="512.000000pt" viewBox="0 0 512.000000 512.000000"
 preserveAspectRatio="xMidYMid meet">

<g transform="translate(0.000000,512.000000) scale(0.100000,-0.100000)"
fill="#ffffff" stroke="none">
<path d="M2465 5015 c-145 -32 -241 -89 -375 -224 -63 -63 -131 -145 -168
-201 -63 -94 -174 -309 -210 -405 -10 -27 -23 -49 -28 -48 -6 1 -74 10 -152
19 -122 16 -143 21 -148 37 -11 36 -79 100 -129 123 -130 61 -285 4 -352 -130
-18 -35 -26 -40 -104 -65 -254 -82 -419 -245 -465 -460 -56 -265 62 -609 329
-959 40 -52 78 -102 85 -113 12 -16 9 -25 -30 -76 -374 -489 -451 -953 -204
-1221 l54 -57 -1 -75 c0 -88 15 -131 69 -190 58 -64 105 -84 194 -85 65 0 82
4 130 31 35 19 66 47 85 75 l30 44 163 -4 c141 -3 292 7 398 25 31 6 32 4 49
-48 28 -82 118 -280 172 -374 121 -214 292 -393 446 -469 190 -94 352 -97 532
-10 238 114 458 401 615 803 33 83 33 84 64 78 58 -11 221 -26 281 -26 l60 0
24 -45 c75 -141 275 -176 400 -68 48 41 91 120 91 169 0 28 8 36 83 82 152 92
249 224 282 380 56 261 -65 608 -337 965 l-59 78 70 87 c428 537 508 1021 217
1307 -39 39 -97 84 -128 100 -51 27 -58 33 -58 61 0 97 -67 201 -158 246 -129
62 -306 -7 -353 -136 -13 -36 -13 -36 -74 -36 -58 0 -292 -23 -365 -36 l-35
-6 -54 122 c-236 533 -590 811 -936 735z m229 -100 c155 -41 329 -183 456
-375 66 -101 187 -339 192 -379 3 -22 -4 -25 -127 -57 -172 -45 -347 -103
-528 -176 l-149 -60 -156 60 c-185 71 -338 120 -482 157 -58 15 -106 28 -108
29 -4 4 58 147 98 226 155 310 361 520 563 575 69 18 170 18 241 0z m1557
-638 c62 -33 91 -85 86 -158 -4 -67 -31 -111 -87 -139 -85 -43 -189 -10 -229
73 -34 71 -25 135 27 191 56 59 130 71 203 33z m-3001 -67 c62 -44 82 -157 41
-224 -79 -127 -273 -99 -309 45 -39 154 137 272 268 179z m2660 -130 c0 -38
42 -110 88 -150 45 -40 119 -70 172 -70 65 0 134 32 189 86 30 30 57 54 60 54
15 0 101 -64 147 -110 94 -93 134 -199 134 -355 0 -230 -127 -513 -361 -808
l-62 -77 -151 152 c-127 128 -293 277 -418 374 -23 18 -28 33 -38 105 -30 223
-100 537 -156 702 -13 38 -22 73 -19 77 3 4 51 13 107 20 57 6 110 13 118 15
8 1 54 3 103 4 81 1 87 0 87 -19z m-2314 -31 l61 -11 -24 -76 c-54 -172 -101
-388 -149 -679 -4 -27 -23 -47 -102 -110 -156 -123 -315 -267 -441 -400 l-118
-123 -86 115 c-156 208 -247 383 -293 563 -22 83 -25 114 -21 212 4 133 24
197 88 282 68 92 219 188 334 212 29 6 31 4 48 -44 81 -229 396 -241 496 -20
11 25 21 58 21 74 l0 29 63 -7 c34 -4 90 -12 123 -17z m1805 -36 c47 -125 139
-507 164 -685 l6 -46 -178 118 c-194 129 -472 289 -625 360 -54 25 -98 48 -98
52 0 24 622 226 703 228 10 0 22 -11 28 -27z m-1482 -35 c106 -28 382 -118
460 -151 l33 -14 -167 -87 c-187 -97 -363 -201 -538 -318 l-118 -78 7 37 c28
162 72 360 110 491 24 85 44 156 44 158 0 5 28 -1 169 -38z m815 -311 c273
-134 506 -273 762 -455 l92 -65 6 -56 c15 -133 26 -359 26 -533 0 -173 -14
-465 -25 -514 -8 -36 -344 -256 -632 -413 -146 -80 -405 -201 -429 -201 -24 0
-359 166 -504 250 -195 112 -460 292 -465 315 -15 67 -28 337 -27 570 0 239 7
383 28 577 l7 57 161 109 c209 142 420 265 631 369 93 45 171 83 173 83 3 0
91 -42 196 -93z m-1285 -752 c-12 -181 -7 -726 8 -819 l6 -40 -69 54 c-117 91
-264 223 -388 348 l-119 120 174 175 c153 153 388 361 397 352 2 -2 -2 -87 -9
-190z m2397 20 c70 -60 181 -166 246 -235 l119 -125 -148 -146 c-130 -128
-353 -323 -360 -315 -1 1 2 90 8 197 10 181 7 428 -8 648 -4 68 -3 93 5 90 6
-2 69 -53 138 -114z m-2867 -588 c147 -144 254 -237 414 -361 73 -57 87 -72
87 -96 0 -59 60 -381 100 -535 23 -88 44 -170 47 -181 5 -20 -1 -22 -109 -33
-124 -12 -246 -17 -350 -13 -64 2 -68 3 -68 25 0 48 -31 124 -67 166 -95 111
-266 123 -381 26 -39 -33 -44 -30 -102 57 -141 212 -95 537 127 883 56 86 143
205 151 205 3 0 71 -64 151 -143z m3366 56 c287 -388 377 -747 247 -987 -34
-64 -117 -147 -183 -185 l-52 -29 -31 46 c-58 87 -172 134 -270 112 -64 -14
-94 -31 -137 -77 -43 -45 -65 -84 -74 -136 l-7 -37 -72 0 c-69 0 -236 17 -244
25 -2 2 12 64 32 137 49 184 81 336 106 513 12 83 23 160 26 171 2 12 40 49
86 85 114 88 295 249 403 358 49 50 93 91 97 91 5 0 37 -39 73 -87z m-770
-540 c-3 -16 -14 -84 -25 -153 -31 -187 -116 -540 -135 -558 -7 -7 -205 39
-340 79 -112 32 -280 89 -380 129 -29 11 -26 13 190 123 227 116 420 228 585
341 52 36 98 65 102 65 4 1 5 -11 3 -26z m-1890 -83 c143 -97 312 -194 518
-300 l209 -107 -119 -42 c-158 -57 -325 -106 -453 -135 l-105 -24 -28 87 c-32
101 -90 357 -110 489 -17 108 -22 106 88 32z m-759 -492 c52 -36 77 -90 72
-154 -8 -90 -62 -144 -151 -152 -108 -9 -182 60 -182 169 1 46 6 63 29 94 57
75 159 93 232 43z m1734 -18 c164 -66 380 -134 555 -176 88 -20 162 -39 164
-41 6 -4 -67 -177 -120 -283 -149 -300 -360 -512 -565 -565 -302 -79 -597 143
-825 620 -59 125 -105 242 -97 250 2 2 77 23 167 45 157 40 413 123 536 174
33 14 65 24 70 22 6 -2 57 -23 115 -46z m1513 -14 c106 -45 137 -182 61 -266
-112 -124 -306 -41 -292 125 5 65 37 111 92 136 49 22 95 24 139 5z"/>
<path d="M2292 3278 c-8 -8 -12 -49 -12 -120 l0 -108 -38 0 c-90 0 -172 -82
-172 -172 l0 -38 -108 0 c-113 0 -132 -6 -132 -45 0 -39 19 -45 132 -45 l108
0 0 -70 0 -70 -104 0 c-110 0 -136 -9 -136 -50 0 -41 26 -50 136 -50 l104 0 0
-70 0 -70 -108 0 c-113 0 -132 -6 -132 -45 0 -39 19 -45 132 -45 l108 0 0 -38
c0 -90 82 -172 172 -172 l38 0 0 -108 c0 -113 6 -132 45 -132 39 0 45 19 45
132 l0 108 70 0 70 0 0 -104 c0 -110 9 -136 50 -136 41 0 50 26 50 136 l0 104
70 0 70 0 0 -108 c0 -113 6 -132 45 -132 39 0 45 19 45 132 l0 108 38 0 c90 0
172 82 172 172 l0 38 108 0 c113 0 132 6 132 45 0 39 -19 45 -132 45 l-108 0
0 70 0 70 104 0 c110 0 136 9 136 50 0 41 -26 50 -136 50 l-104 0 0 70 0 70
108 0 c113 0 132 6 132 45 0 39 -19 45 -132 45 l-108 0 0 38 c0 90 -82 172
-172 172 l-38 0 0 108 c0 113 -6 132 -45 132 -39 0 -45 -19 -45 -132 l0 -108
-70 0 -70 0 0 104 c0 110 -9 136 -50 136 -41 0 -50 -26 -50 -136 l0 -104 -70
0 -70 0 0 108 c0 113 -6 132 -45 132 -12 0 -26 -5 -33 -12z m638 -348 c19 -19
20 -33 20 -370 0 -337 -1 -351 -20 -370 -19 -19 -33 -20 -370 -20 -337 0 -351
1 -370 20 -19 19 -20 33 -20 370 0 337 1 351 20 370 19 19 33 20 370 20 337 0
351 -1 370 -20z"/>
<path d="M2420 2783 c-23 -9 -60 -45 -76 -75 -17 -33 -20 -328 -4 -359 13 -23
53 -25 74 -3 12 11 16 36 16 90 l0 74 45 0 45 0 0 -78 c0 -82 9 -102 45 -102
41 0 45 16 45 188 0 185 -8 217 -65 252 -31 19 -91 25 -125 13z m73 -95 c9 -7
20 -28 23 -45 l7 -33 -47 0 c-46 0 -46 0 -46 35 0 22 6 38 18 44 22 13 25 13
45 -1z"/>
<path d="M2700 2771 c-6 -12 -10 -99 -10 -215 0 -164 3 -197 16 -210 21 -22
61 -20 74 3 6 12 10 98 10 211 0 113 -4 199 -10 211 -7 12 -21 19 -40 19 -19
0 -33 -7 -40 -19z"/>
</g>
</svg>
