<?xml version="1.0" standalone="no"?>
<!DOCTYPE svg PUBLIC "-//W3C//DTD SVG 20010904//EN"
 "http://www.w3.org/TR/2001/REC-SVG-20010904/DTD/svg10.dtd">
<svg version="1.0" xmlns="http://www.w3.org/2000/svg"
 width="512.000000pt" height="512.000000pt" viewBox="0 0 512.000000 512.000000"
 preserveAspectRatio="xMidYMid meet">

<g transform="translate(0.000000,512.000000) scale(0.100000,-0.100000)"
fill="#ffffff" stroke="none">
<path d="M3487 5106 c-20 -7 -53 -26 -73 -41 -36 -28 -84 -112 -84 -150 0 -17
-34 -31 -270 -103 l-270 -83 -31 35 c-39 45 -118 83 -189 92 -50 6 -61 13
-121 69 -75 70 -148 115 -232 141 -56 17 -58 17 -85 -3 -37 -27 -42 -76 -11
-109 12 -13 27 -24 33 -24 26 0 135 -61 176 -98 l45 -40 -27 -29 c-73 -77 -92
-208 -44 -307 30 -61 65 -95 137 -132 l49 -24 0 -303 0 -304 -50 -32 c-66 -43
-101 -102 -108 -184 l-5 -62 -302 -174 c-211 -121 -306 -181 -314 -198 -17
-38 -15 -954 2 -977 7 -10 148 -96 313 -191 l299 -173 6 -60 c8 -80 46 -145
110 -185 l49 -30 0 -281 0 -281 -47 -25 c-125 -66 -156 -227 -66 -345 l34 -46
-36 -49 c-72 -98 -186 -177 -305 -211 -76 -21 -234 -17 -315 8 -137 43 -264
148 -329 272 -39 75 -66 169 -66 230 0 95 -61 140 -124 90 -23 -18 -26 -27
-26 -82 0 -53 19 -149 45 -234 7 -20 4 -23 -22 -23 -50 0 -184 38 -248 70 -33
17 -86 53 -118 80 -32 28 -70 53 -84 56 -31 8 -77 -23 -81 -56 -7 -45 9 -70
80 -126 141 -110 280 -162 461 -171 l107 -6 73 -71 c86 -84 172 -137 282 -173
69 -22 98 -26 210 -27 148 -1 225 17 348 82 85 44 203 153 255 235 36 57 44
64 90 75 29 8 67 28 92 49 l42 36 132 -40 c72 -23 229 -72 349 -109 l217 -67
0 -36 c0 -121 143 -251 275 -251 98 0 208 72 251 165 29 60 32 155 8 215 l-16
40 258 265 c237 243 261 265 284 258 14 -5 52 -8 85 -7 200 2 296 238 158 386
l-26 27 43 133 c23 73 49 154 57 181 13 45 15 47 51 47 91 0 204 91 237 190
43 130 -22 282 -144 336 l-41 18 0 250 1 251 44 27 c64 39 98 96 103 173 2 35
-1 80 -8 101 -18 54 -88 120 -147 137 l-48 14 -32 119 -31 119 33 35 c45 46
65 97 65 165 0 122 -77 209 -199 225 l-44 5 -64 148 c-34 82 -63 153 -63 158
0 6 12 22 26 37 95 99 91 276 -9 381 -88 92 -244 108 -352 35 l-37 -25 -183
112 -182 112 -6 64 c-6 81 -44 146 -108 186 -56 34 -136 44 -192 23z m106
-147 c49 -22 61 -86 22 -124 -48 -49 -135 -15 -135 53 0 31 14 54 45 70 26 14
38 15 68 1z m-188 -239 l32 -31 -48 -207 c-27 -114 -51 -217 -54 -229 -4 -17
-13 -23 -33 -23 -16 0 -50 -11 -76 -24 l-48 -24 -182 143 -183 144 12 57 c6
33 18 60 26 63 40 14 505 159 514 160 5 1 23 -13 40 -29z m-774 -41 c59 -41
64 -138 11 -192 -59 -58 -173 -41 -200 31 -20 53 -21 61 -11 94 23 86 125 120
200 67z m1268 -86 c86 -53 161 -101 168 -107 8 -7 9 -30 5 -69 l-7 -58 -245
-109 c-135 -60 -249 -109 -255 -109 -5 0 -27 14 -48 32 l-38 33 52 227 c43
185 56 227 69 227 9 0 37 11 61 24 51 27 29 36 238 -91z m519 -83 c66 -41 78
-131 24 -191 -71 -79 -205 -37 -219 68 -14 105 103 179 195 123z m-1516 -301
c173 -137 180 -143 174 -172 -3 -16 -6 -60 -6 -97 l0 -67 -167 -105 c-93 -58
-174 -108 -181 -112 -8 -5 -28 0 -48 10 l-34 19 0 312 0 313 38 19 c20 11 39
20 40 21 2 0 85 -64 184 -141z m1264 -15 c19 -15 34 -31 34 -38 0 -6 -32 -131
-72 -278 l-73 -267 -48 -11 c-26 -5 -61 -16 -76 -24 -28 -15 -28 -14 -180 121
-131 115 -152 138 -146 156 4 12 9 50 12 83 l5 62 247 110 c135 61 250 111
254 111 5 1 24 -11 43 -25z m286 -220 l67 -156 -29 -39 c-28 -40 -54 -127 -45
-151 3 -8 -27 -30 -84 -61 -48 -26 -92 -47 -97 -47 -5 1 -22 11 -38 24 l-28
23 72 264 c76 278 83 299 103 299 7 0 42 -70 79 -156z m-1042 91 c80 -41 79
-172 0 -219 -58 -33 -145 -11 -176 46 -16 28 -18 92 -3 121 31 62 113 86 179
52z m-170 -366 l30 -11 -2 -230 -3 -229 -37 -21 -37 -21 -200 114 -201 114 3
54 2 54 180 113 180 112 27 -19 c15 -11 41 -25 58 -30z m406 -111 c112 -99
148 -137 146 -152 -1 -12 -6 -50 -10 -86 l-7 -64 -128 -58 -129 -58 -49 32
-49 31 0 227 0 226 33 16 c17 8 35 16 38 17 4 0 74 -58 155 -131z m1084 112
c25 -25 26 -80 1 -111 -21 -27 -79 -32 -106 -9 -39 32 -38 97 2 128 26 19 80
15 103 -8z m-2112 -186 c28 -31 28 -64 1 -98 -16 -20 -29 -26 -59 -26 -65 0
-101 66 -64 118 33 47 82 49 122 6z m1991 -90 c14 -3 31 -7 37 -9 6 -2 25 -57
41 -124 l30 -120 -21 -19 c-21 -19 -22 -19 -193 57 l-173 76 0 50 0 50 92 46
92 46 35 -24 c19 -13 46 -26 60 -29z m-481 8 c32 -21 52 -64 52 -112 0 -87
-106 -148 -185 -106 -42 23 -65 65 -65 119 0 101 111 156 198 99z m-1677 -167
c61 -34 147 -35 214 -1 l48 25 201 -116 202 -116 0 -51 c2 -78 56 -165 127
-202 l27 -15 0 -234 c0 -227 -1 -234 -21 -240 -33 -11 -89 -65 -111 -108 -11
-23 -21 -64 -23 -94 l-2 -54 -198 -115 -198 -114 -51 25 c-68 34 -145 34 -212
0 l-49 -25 -275 158 -275 158 -3 411 -2 410 277 161 c153 89 279 161 279 162
1 0 22 -11 45 -25z m1478 -215 c0 -14 -15 -108 -32 -209 l-33 -185 -29 -8
c-29 -8 -35 -3 -157 124 -85 88 -126 138 -122 148 3 8 9 37 13 64 l6 49 129
57 129 57 49 -36 c36 -27 48 -42 47 -61z m616 -24 c63 -29 70 -35 72 -64 2
-28 -3 -34 -77 -77 -81 -48 -90 -58 -90 -105 0 -30 39 -70 69 -70 9 0 51 20
94 45 l79 45 39 -23 39 -22 0 -247 0 -248 -42 -21 c-24 -12 -55 -32 -70 -46
l-26 -25 -251 118 -251 118 0 36 c0 33 4 37 76 79 94 54 104 65 104 106 0 37
-37 75 -72 75 -11 0 -56 -22 -101 -49 -74 -43 -85 -47 -103 -34 l-21 13 35
210 35 209 31 7 c39 8 92 36 130 67 l30 24 100 -44 c56 -25 133 -59 171 -77z
m-1148 42 c33 -31 32 -90 -3 -117 -35 -27 -66 -26 -100 2 -35 31 -37 77 -4
112 30 32 75 33 107 3z m1513 -48 c16 -31 11 -79 -10 -100 -20 -20 -63 -26
-95 -14 -27 11 -45 62 -33 97 20 55 111 67 138 17z m-1338 -355 l124 -130 -13
-45 c-8 -25 -12 -57 -10 -73 4 -33 4 -33 -97 -91 l-79 -45 -39 22 -38 22 0
238 c0 200 2 238 14 235 8 -2 70 -61 138 -133z m383 -180 c63 -62 -6 -161 -90
-129 -18 7 -45 55 -45 79 0 26 55 75 85 75 14 0 37 -11 50 -25z m362 -335
l241 -113 4 -51 3 -50 -210 -102 -210 -101 -27 19 c-15 10 -40 23 -56 29 l-29
10 -18 210 -18 210 34 29 c19 15 36 27 39 26 3 -2 114 -54 247 -116z m-515 75
l45 -25 11 -128 c25 -273 26 -302 11 -302 -25 0 -311 251 -305 267 3 8 6 37 6
63 l0 49 83 50 c45 27 87 50 93 50 6 1 32 -10 56 -24z m-392 -75 c16 -31 11
-79 -10 -100 -21 -21 -69 -26 -100 -10 -39 21 -45 97 -9 127 33 27 101 17 119
-17z m1504 -61 c58 -45 71 -114 33 -170 -41 -61 -113 -77 -175 -39 -70 43 -78
136 -17 197 28 28 40 33 83 33 35 0 57 -6 76 -21z m-1695 -176 l20 -18 -22
-149 -23 -150 -46 -15 c-25 -9 -64 -29 -88 -45 l-42 -30 -114 57 -114 57 0 39
0 39 198 116 c108 63 200 115 203 116 4 0 16 -8 28 -17z m396 -135 l145 -123
-7 -40 c-3 -22 -6 -41 -7 -42 -1 -1 -65 -24 -142 -52 l-140 -49 -45 42 c-25
22 -52 46 -61 51 -15 9 -14 22 6 158 13 81 25 149 27 152 8 7 53 24 67 24 7 1
78 -54 157 -121z m1047 -5 l25 -28 -56 -174 -56 -174 -45 -13 c-25 -7 -55 -19
-67 -25 -20 -11 -35 -4 -142 67 l-120 79 6 45 c3 25 7 46 8 47 3 4 410 202
416 203 3 0 17 -12 31 -27z m-2047 -68 c40 -39 27 -104 -26 -125 -33 -14 -62
-6 -89 23 -44 46 -5 127 60 127 19 0 40 -9 55 -25z m1416 -84 c33 -33 35 -50
14 -90 -24 -46 -74 -55 -119 -20 -42 33 -32 109 17 129 38 15 58 11 88 -19z
m-1079 -289 c-2 -22 4 -66 13 -98 l17 -57 -164 -164 c-89 -89 -166 -163 -170
-163 -5 0 -8 132 -8 293 l1 292 42 26 42 26 115 -58 116 -57 -4 -40z m363 75
c43 -43 52 -79 34 -131 -39 -113 -199 -113 -238 0 -18 52 -9 88 34 131 29 29
39 33 85 33 46 0 56 -4 85 -33z m462 -444 c-64 -317 -85 -403 -97 -403 -10 1
-59 95 -142 273 l-127 272 23 25 c40 43 56 76 70 141 l13 63 139 47 139 47 32
-32 33 -31 -83 -402z m461 338 l117 -78 -3 -46 c-2 -25 1 -62 8 -82 l12 -35
-257 -265 c-142 -146 -261 -265 -265 -265 -4 0 29 181 74 402 l82 401 49 23
c28 12 54 23 58 23 4 1 60 -34 125 -78z m397 -86 c27 -26 31 -54 13 -88 -27
-52 -83 -62 -123 -22 -50 49 -15 135 55 135 19 0 40 -9 55 -25z m-1502 -160
c20 -8 60 -15 90 -15 l53 0 127 -271 c70 -149 127 -274 127 -278 0 -4 -12 -19
-27 -33 l-28 -25 -344 107 -344 106 -13 50 -13 49 162 163 c89 89 165 162 168
162 4 0 23 -7 42 -15z m-529 -356 c37 -29 37 -89 0 -118 -37 -29 -70 -26 -105
8 -36 36 -37 60 -3 100 31 37 69 41 108 10z m1173 -309 c50 -30 66 -62 61
-120 -16 -161 -248 -152 -248 9 0 53 17 84 64 112 40 24 83 24 123 -1z"/>
<path d="M2884 2900 c-52 -21 -54 -33 -54 -343 l0 -288 25 -24 c31 -32 74 -33
103 -2 22 23 22 29 22 319 0 267 -2 298 -17 316 -22 25 -51 33 -79 22z"/>
<path d="M2315 2878 c-19 -17 -53 -95 -130 -297 -58 -151 -105 -286 -105 -302
0 -18 9 -35 26 -48 53 -42 103 -19 129 59 l17 50 113 0 113 0 17 -50 c18 -53
45 -80 83 -80 29 0 72 42 72 72 0 12 -45 144 -101 293 -78 208 -108 276 -130
298 -36 33 -69 35 -104 5z m79 -320 l25 -68 -54 0 -54 0 24 65 c14 36 25 68
25 72 0 14 10 -5 34 -69z"/>
<path d="M1750 5028 c-35 -18 -96 -64 -136 -101 l-73 -68 -63 22 c-47 17 -88
22 -163 23 -128 1 -214 -24 -319 -95 -161 -107 -248 -267 -251 -461 l-1 -87
-74 -53 c-168 -120 -270 -319 -270 -525 l0 -69 -35 -13 c-43 -15 -139 -101
-172 -154 -74 -117 -86 -271 -33 -402 l21 -52 -49 -65 c-128 -169 -164 -393
-97 -595 44 -131 120 -237 223 -312 l59 -43 -24 -59 c-55 -135 -45 -327 22
-459 27 -52 104 -146 147 -178 l45 -33 -8 -47 c-19 -114 0 -302 36 -373 23
-44 76 -53 113 -19 26 24 28 59 7 145 -64 265 83 569 336 694 68 34 107 46
185 57 132 20 146 25 163 55 12 22 12 31 2 57 -19 47 -55 57 -156 44 -259 -34
-479 -184 -604 -412 l-28 -51 -42 46 c-80 87 -119 218 -100 336 12 73 40 135
59 131 131 -30 199 -29 228 1 52 55 10 127 -72 127 -197 0 -405 168 -458 369
-65 250 77 519 314 596 71 23 88 40 88 85 0 37 -17 61 -52 73 -22 8 -81 -9
-152 -44 -32 -16 -59 -29 -61 -29 -11 0 -28 83 -28 131 1 117 75 217 192 259
33 13 66 29 73 38 9 10 13 55 13 146 1 149 14 198 87 306 35 53 142 150 152
139 2 -2 14 -24 26 -49 35 -68 153 -181 230 -218 132 -64 268 -81 308 -39 13
13 22 36 22 54 0 46 -30 66 -113 75 -189 20 -334 158 -368 352 -37 214 118
426 344 467 85 16 171 2 262 -43 78 -39 95 -34 154 45 49 68 107 115 187 155
34 17 64 38 68 47 20 53 -13 105 -68 105 -18 0 -62 -15 -96 -32z"/>
<path d="M1973 4118 c-21 -22 -22 -30 -16 -128 5 -92 3 -112 -17 -163 -33 -87
-111 -166 -205 -207 -86 -39 -106 -69 -80 -121 27 -51 73 -50 184 4 122 60
231 201 261 338 19 84 9 232 -17 267 -27 37 -80 42 -110 10z"/>
<path d="M996 2797 c-54 -54 -20 -120 66 -130 95 -12 178 -97 178 -183 0 -17
9 -43 21 -58 26 -33 79 -36 110 -5 19 19 21 30 16 85 -12 159 -143 290 -309
310 -52 6 -58 4 -82 -19z"/>
<path d="M1864 1478 c-29 -14 -44 -49 -44 -105 0 -58 -40 -133 -89 -167 -20
-14 -60 -31 -89 -37 -57 -14 -77 -30 -87 -71 -6 -22 -1 -33 23 -58 28 -27 35
-30 74 -25 24 4 77 23 118 43 127 63 200 180 200 322 0 62 -2 70 -26 89 -29
23 -48 25 -80 9z"/>
</g>
</svg>
